# xmcd
#
# Track frame offsets: 
#        150
#        13925
#        24775
#        36965
#        54675
#        67575
#        79925
#        94125
#        108975
#        122325
#        134100
#        145125
#        155400
#        168075
#        184700
#        203937
#        218100
#        231150
#        241275
#        254175
#        263325
#        274500
#        287400
#        299575
#        311800
#
# Disc length: 4358 seconds
#
# Revision: 0
# Processed by: cddbd v1.5.2PL0 Copyright (c) Steve Scherf et al.
# Submitted via: ExactAudioCopy v0.99pb5
#
DISCID=69110419
DTITLE=Various Artist - A Carnival Of Soul - I Wanna Bee
DYEAR=1900
DGENRE=Soul
TTITLE0=Lee Williams and The Cymbals - I Need You Baby
TTITLE1=Phil Terrell - I'll Erase You (From My Heart)
TTITLE2=The Manhattans - I Wanna Be (Your Everything)
TTITLE3=The Pretenders - I Call It Love
TTITLE4=The Topics - If Love Comes Knocking
TTITLE5=Barbara Brown - Send Him To Me
TTITLE6=The Turner Brothers - I'm The Man For You Baby
TTITLE7=Jimmy Jules - Just One More Time
TTITLE8=Lee Williams and The Cymbals - I'll Be Gone
TTITLE9=Delores Johnson - What Kind Of Man Are You
TTITLE10=Curly May - Oh Why
TTITLE11=Little Royal - You Made Me Love You
TTITLE12=Maurice Simon And The Piemen - The Git Go
TTITLE13=The Pretenders - Just Be Yourself
TTITLE14=James Perry - April Lady
TTITLE15=The Three Reasons - Take Me Back
TTITLE16=The Lovettes - Lonely Girl
TTITLE17=Kenneth Ruffin - Cry Cry Cry
TTITLE18=Leon and The Metronomes With The Kool Kings Band - Buy This Rec
TTITLE18=ord For Me
TTITLE19=The Trenteens - Your Yah-Yah Is Gone
TTITLE20=Delores Johnson- Try Me One Time
TTITLE21=Renee Bailey - It's Too Late For Tears
TTITLE22=The Manhattans - I Dont Wanna Go
TTITLE23=Wilbur Bascomb and The Blue Zodiact - Groove In "G"
TTITLE24=New Jersey Connection - Love Dont Come Easy
EXTD=
EXTT0=
EXTT1=
EXTT2=
EXTT3=
EXTT4=
EXTT5=
EXTT6=
EXTT7=
EXTT8=
EXTT9=
EXTT10=
EXTT11=
EXTT12=
EXTT13=
EXTT14=
EXTT15=
EXTT16=
EXTT17=
EXTT18=
EXTT19=
EXTT20=
EXTT21=
EXTT22=
EXTT23=
EXTT24=
PLAYORDER=
